<?xml version="1.0" encoding="utf-8"?>
<!-- Generator: Adobe Illustrator 25.2.1, SVG Export Plug-In . SVG Version: 6.00 Build 0)  -->
<svg version="1.1" id="Vrstva_1" xmlns="http://www.w3.org/2000/svg" xmlns:xlink="http://www.w3.org/1999/xlink" x="0px" y="0px"
	 viewBox="0 0 1903 200" style="enable-background:new 0 0 1903 200;" xml:space="preserve">
<g>
	<path d="M794,132.2v0.5h-10.2v-0.5c1.8-1,1.6-1.8,1.6-4.3V70.3c0-2.6,0.2-3.4-1.6-4.3v-0.5h18.6v21.8H801c-1-8.2-1.5-17.8-8.7-17.8
		v23.8c3.8-1.4,4.5-7.4,4.6-11.4h1.4v28.2h-1.5c-0.2-3.8-0.6-10.4-4.4-12.2v29.8C792.3,130.3,792.1,131.3,794,132.2z"/>
	<path d="M816.7,132.2v0.5h-10.2v-0.5c1.9-1,1.7-1.8,1.7-4.3V70.3c0-2.6,0.2-3.4-1.7-4.3v-0.5h10.2V66c-1.8,0.9-1.6,1.8-1.6,4.3
		v57.5C815.1,130.3,814.9,131.3,816.7,132.2z"/>
	<path d="M834.1,132.7c0,0-3.6-17.1-4.9-28.2c-1-9.1-1.8-23.7-1.8-23.7H827c0,0,0.7,14.9,0.8,24.3c0.1,8.8,0,22.8,0,22.8
		c0,2.5-0.2,3.4,1.7,4.3v0.5h-8.1v-0.5c1.9-1,1.6-1.8,1.6-4.3V70.3c0-2.6,0.3-3.4-1.6-4.3v-0.5h8.1c0,0,2.6,15.6,3.6,25.6
		c0.9,8.8,1.9,22.8,1.9,22.8h0.3c-0.2-8.9-0.8-14-1-22.8c-0.1-8,0-20.8,0-20.8c0-2.6,0.2-3.4-1.6-4.3v-0.5h8V66
		c-1.8,1-1.6,1.8-1.6,4.3v62.3H834.1z"/>
	<path d="M852.4,132.2v0.5H844v-0.5c2.2-0.6,2.1-4.1,2.1-4.3l4.2-62.3h6.6l5,61.9c0.3,3.3,1.1,4.2,2.6,4.7v0.5h-10.6v-0.5
		c1.6-0.8,1.9-1.4,1.7-4.3l-1-9h-3.1l-0.6,8.6C850.6,129.9,850.5,131.3,852.4,132.2z M852,114.5h2.1l-0.7-34.6c0-0.6-0.6-0.6-0.6,0
		L852,114.5z"/>
	<path d="M867.5,66v-0.5h10.2V66c-1.8,0.7-1.6,1.8-1.6,4.3v58.2c7.4-0.2,7.4-8.4,9-20.3h1.6l-0.6,24.4h-18.6v-0.5
		c1.9-1,1.7-1.8,1.7-4.3V70.3C869.2,67.8,869.4,66.9,867.5,66z"/>
	<path d="M913.1,132.2v0.5H903v-0.5c1.8-1,1.6-1.8,1.6-4.3V70.3c0-2.6,0.2-3.4-1.6-4.3v-0.5h18.6v21.8h-1.4
		c-1-8.2-1.5-17.8-8.7-17.8v23.8c3.8-1.4,4.5-7.4,4.6-11.4h1.4v28.2h-1.5c-0.2-3.8-0.6-10.4-4.4-12.2v29.8
		C911.4,130.3,911.2,131.3,913.1,132.2z"/>
	<path d="M930.3,132.2v0.5h-8.4v-0.5c2.2-0.6,2.1-4.1,2.1-4.3l4.2-62.3h6.6l5,61.9c0.3,3.3,1.1,4.2,2.6,4.7v0.5h-10.6v-0.5
		c1.6-0.8,1.9-1.4,1.7-4.3l-1-9h-3.1l-0.6,8.6C928.6,129.9,928.4,131.3,930.3,132.2z M929.9,114.5h2.1l-0.7-34.6
		c0-0.6-0.6-0.6-0.6,0L929.9,114.5z"/>
	<path d="M958.5,132.7c0,0-3.6-17.1-4.9-28.2c-1-9.1-1.8-23.7-1.8-23.7h-0.4c0,0,0.7,14.9,0.8,24.3c0.1,8.8,0,22.8,0,22.8
		c0,2.5-0.2,3.4,1.7,4.3v0.5h-8.1v-0.5c1.9-1,1.6-1.8,1.6-4.3V70.3c0-2.6,0.3-3.4-1.6-4.3v-0.5h8.1c0,0,2.6,15.6,3.6,25.6
		c0.9,8.8,1.9,22.8,1.9,22.8h0.3c-0.2-8.9-0.8-14-1-22.8c-0.1-8,0-20.8,0-20.8c0-2.6,0.2-3.4-1.6-4.3v-0.5h8V66
		c-1.8,1-1.6,1.8-1.6,4.3v62.3H958.5z"/>
	<path d="M983.4,132.2v0.5h-10.2v-0.5c1.9-1,1.6-1.8,1.6-4.3V70.1c-1.7,1.3-3.7,5.6-5.1,19.9h-1.2V65.5h19.5v24.6h-1.2
		c-1.4-15.1-3-18.5-5-20v57.8C981.8,130.3,981.5,131.3,983.4,132.2z"/>
	<path d="M995.6,132.2v0.5h-8.4v-0.5c2.2-0.6,2.1-4.1,2.1-4.3l4.2-62.3h6.6l5,61.9c0.3,3.3,1.1,4.2,2.6,4.7v0.5H997v-0.5
		c1.6-0.8,1.9-1.4,1.7-4.3l-1-9h-3.1l-0.6,8.6C993.8,129.9,993.7,131.3,995.6,132.2z M995.2,114.5h2.1l-0.7-34.6
		c0-0.6-0.6-0.6-0.6,0L995.2,114.5z"/>
	<path d="M1015,98.6l-1.7-2.1c-1.1-1.6-4.5-5.3-4.9-10.4v-12c-0.3-9.2,8.1-9.1,8.6-9.1c0.8,0,8.5-0.2,8.5,9.3c0,0,0,6.7,0,8.2V85
		l-7.4,2.9c0.9-2.7,0.6-9.6,0.6-15.4c0-1.3,0.2-3.4-1.8-3.4c-1.8,0-1.9,1.2-1.9,3.3v12.2c0.6,4.3,1.5,4.5,3.2,6.6l1.4,1.8
		c7.4,9.9,7.2,11.4,7.2,19.5v11.9c0,9.1-8.5,9-8.9,9c-0.4,0-8.8,0.2-8.8-9V108l7.6-3.7c-0.9,3-0.7,3.5-0.7,8.1v13.9
		c0,1.6,0.2,3,1.9,3c1.9,0,1.8-1.9,1.8-3.1v-10C1019.8,107.3,1020.4,105.5,1015,98.6z"/>
	<path d="M1029.7,70.5c-0.3-2.5-0.6-4.2-2.4-4.5v-0.5h10.1V66c-1.8,0.4-1.4,1.8-1.2,4.9l2.1,21.6h0.2l1.6-22.2
		c0.2-2.2,0.5-3.8-1.4-4.2v-0.5h8.4V66c-1.3,0.3-2.1,2.4-2.2,4.6l-3.7,35.8v21.5c0,2.5-0.2,3.4,1.7,4.3v0.5h-5.2h-5v-0.5
		c1.9-1,1.6-1.8,1.6-4.3v-21.7L1029.7,70.5z"/>
	<path d="M1080,124.3c0,9.1-8.7,9.1-9.1,9.1c-0.2,0-8.6,0.1-8.6-9V74.1c0-9.2,8.5-9.1,8.7-9.1c0.7,0,8.5-0.2,8.6,9.4
		c0,4.2,0.2,9.8-0.8,11l-7.1,3.1c1.1-1.5,1-2.7,1-8.1c0-2.9,0-7,0-8.1c0-1,0.2-3.4-1.8-3.4c-1.9,0-1.6,1.8-1.6,3.3v53.6
		c0,1.5,0,3.4,1.7,3.4c1.9,0,2-1.7,2-3.4v-13.1c0-2.6-0.8-4.4-1.3-5.2l8.2,3.5c0,0,0.2,4.1,0.2,6.6
		C1080,118.2,1080,124.3,1080,124.3z"/>
	<path d="M1103,65.5l-11.5,62.6c3.1,0,6.1,1,9.7-19.8h1.7l-1.7,24.4h-17.6l12.2-62.9c-4.8,0.1-5.8,3.3-8.6,17.7h-1.8l1.4-21.9H1103z
		"/>
</g>
<g>
	<path d="M792.2,155.4h-1l-4.5-6.1l-1.6,1.4v4.8h-0.8v-11.6h0.8v6l1.3-1.3l4.6-4.8h1l-4.8,4.9L792.2,155.4z"/>
	<path d="M803.7,149.6c0,1.8-0.5,3.3-1.4,4.4c-0.9,1.1-2.2,1.6-3.8,1.6c-1.6,0-2.9-0.5-3.8-1.6s-1.4-2.5-1.4-4.4
		c0-1.9,0.5-3.3,1.4-4.4c0.9-1.1,2.2-1.6,3.8-1.6c1.6,0,2.9,0.5,3.8,1.6S803.7,147.7,803.7,149.6z M794.2,149.6c0,1.7,0.4,3,1.1,3.9
		c0.7,0.9,1.8,1.4,3.2,1.4c1.4,0,2.5-0.5,3.2-1.4c0.7-0.9,1.1-2.2,1.1-3.9c0-1.7-0.4-3-1.1-3.9c-0.7-0.9-1.8-1.3-3.2-1.3
		c-1.4,0-2.5,0.5-3.2,1.4C794.5,146.6,794.2,147.9,794.2,149.6z"/>
	<path d="M811.5,155.4l-4.3-10.7h-0.1c0,0.7,0.1,1.3,0.1,2v8.7h-0.8v-11.6h1.3l4.1,10.2h0l4.1-10.2h1.2v11.6h-0.8v-8.8
		c0-0.6,0-1.3,0.1-1.9h-0.1l-4.4,10.7H811.5z"/>
	<path d="M829,143.8v7.5c0,1.3-0.4,2.4-1.2,3.1c-0.8,0.8-1.9,1.1-3.2,1.1c-1.3,0-2.4-0.4-3.2-1.1c-0.8-0.8-1.1-1.8-1.1-3.2v-7.5h0.8
		v7.5c0,1.1,0.3,2,0.9,2.6c0.6,0.6,1.5,0.9,2.6,0.9c1.1,0,2-0.3,2.6-0.9c0.6-0.6,0.9-1.5,0.9-2.6v-7.6H829z"/>
	<path d="M840.6,155.4h-0.8l-6.9-10.3h-0.1c0.1,1.2,0.1,2.2,0.1,2.8v7.5h-0.8v-11.6h0.8l6.9,10.3h0c0-1-0.1-1.9-0.1-2.7v-7.6h0.8
		V155.4z"/>
	<path d="M843.9,155.4v-11.6h0.8v11.6H843.9z"/>
	<path d="M851,155.4h-0.8v-10.9h-3.8v-0.8h8.4v0.8H851V155.4z"/>
	<path d="M865,155.4h-0.8l-6.9-10.3h-0.1c0.1,1.2,0.1,2.2,0.1,2.8v7.5h-0.8v-11.6h0.8l6.9,10.3h0c0-1-0.1-1.9-0.1-2.7v-7.6h0.8
		V155.4z"/>
	<path d="M868.2,142.7c0.4-0.4,0.8-0.9,1.2-1.4c0.4-0.5,0.6-0.9,0.8-1.1h1.1v0.1c-0.2,0.3-0.5,0.6-1,1.1c-0.5,0.5-1,0.9-1.5,1.4
		h-0.6V142.7z M868.3,155.4v-11.6h0.8v11.6H868.3z"/>
	<path d="M883.6,147.1c0,1.1-0.4,2-1.1,2.6s-1.8,0.9-3.2,0.9h-1.8v4.8h-0.8v-11.6h2.8C882.3,143.8,883.6,144.9,883.6,147.1z
		 M877.5,149.9h1.6c1.3,0,2.3-0.2,2.8-0.6s0.9-1.1,0.9-2.1c0-0.9-0.3-1.6-0.8-2s-1.4-0.6-2.6-0.6h-1.9V149.9z"/>
	<path d="M896,149.6c0,1.8-0.5,3.3-1.4,4.4c-0.9,1.1-2.2,1.6-3.8,1.6c-1.6,0-2.9-0.5-3.8-1.6s-1.4-2.5-1.4-4.4
		c0-1.9,0.5-3.3,1.4-4.4c0.9-1.1,2.2-1.6,3.8-1.6c1.6,0,2.9,0.5,3.8,1.6S896,147.7,896,149.6z M886.4,149.6c0,1.7,0.4,3,1.1,3.9
		c0.7,0.9,1.8,1.4,3.2,1.4c1.4,0,2.5-0.5,3.2-1.4c0.7-0.9,1.1-2.2,1.1-3.9c0-1.7-0.4-3-1.1-3.9c-0.7-0.9-1.8-1.3-3.2-1.3
		c-1.4,0-2.5,0.5-3.2,1.4C886.8,146.6,886.4,147.9,886.4,149.6z"/>
	<path d="M899.4,150.3v5.1h-0.8v-11.6h2.8c1.4,0,2.5,0.3,3.2,0.8s1,1.3,1,2.4c0,0.8-0.2,1.4-0.6,2c-0.4,0.5-1,0.9-1.9,1.2l3.2,5.3
		h-1l-3-5.1H899.4z M899.4,149.6h2.2c1,0,1.7-0.2,2.3-0.7c0.5-0.4,0.8-1.1,0.8-1.9c0-0.9-0.3-1.5-0.8-1.9s-1.4-0.6-2.6-0.6h-1.9
		V149.6z"/>
	<path d="M911.3,155.4h-0.8v-10.9h-3.8v-0.8h8.4v0.8h-3.8V155.4z"/>
	<path d="M922.5,151.3h-4.7l-1.6,4.1h-0.9l4.7-11.7h0.5l4.6,11.7h-0.9L922.5,151.3z M918,150.6h4.2l-1.6-4.2
		c-0.1-0.3-0.3-0.8-0.5-1.4c-0.1,0.5-0.3,1-0.5,1.4L918,150.6z M919.2,142.7c0.4-0.4,0.8-0.9,1.2-1.4c0.4-0.5,0.6-0.9,0.8-1.1h1.1
		v0.1c-0.2,0.3-0.5,0.6-1,1.1c-0.5,0.5-1,0.9-1.5,1.4h-0.6V142.7z"/>
	<path d="M926.6,155.4v-11.6h0.8v10.9h5.5v0.8H926.6z"/>
	<path d="M946.2,147.1c0,1.1-0.4,2-1.1,2.6s-1.8,0.9-3.2,0.9H940v4.8h-0.8v-11.6h2.8C944.9,143.8,946.2,144.9,946.2,147.1z
		 M940,149.9h1.6c1.3,0,2.3-0.2,2.8-0.6s0.9-1.1,0.9-2.1c0-0.9-0.3-1.6-0.8-2s-1.4-0.6-2.6-0.6H940V149.9z"/>
	<path d="M958.6,149.6c0,1.8-0.5,3.3-1.4,4.4c-0.9,1.1-2.2,1.6-3.8,1.6c-1.6,0-2.9-0.5-3.8-1.6s-1.4-2.5-1.4-4.4
		c0-1.9,0.5-3.3,1.4-4.4c0.9-1.1,2.2-1.6,3.8-1.6c1.6,0,2.9,0.5,3.8,1.6S958.6,147.7,958.6,149.6z M949,149.6c0,1.7,0.4,3,1.1,3.9
		c0.7,0.9,1.8,1.4,3.2,1.4c1.4,0,2.5-0.5,3.2-1.4c0.7-0.9,1.1-2.2,1.1-3.9c0-1.7-0.4-3-1.1-3.9c-0.7-0.9-1.8-1.3-3.2-1.3
		c-1.4,0-2.5,0.5-3.2,1.4C949.4,146.6,949,147.9,949,149.6z"/>
	<path d="M968.2,147.1c0,1.1-0.4,2-1.1,2.6c-0.8,0.6-1.8,0.9-3.2,0.9H962v4.8h-0.8v-11.6h2.8C966.8,143.8,968.2,144.9,968.2,147.1z
		 M962,149.9h1.6c1.3,0,2.3-0.2,2.8-0.6c0.6-0.4,0.9-1.1,0.9-2.1c0-0.9-0.3-1.6-0.8-2s-1.4-0.6-2.6-0.6H962V149.9z"/>
	<path d="M979.3,143.8v7.5c0,1.3-0.4,2.4-1.2,3.1c-0.8,0.8-1.9,1.1-3.2,1.1c-1.3,0-2.4-0.4-3.2-1.1c-0.8-0.8-1.1-1.8-1.1-3.2v-7.5
		h0.8v7.5c0,1.1,0.3,2,0.9,2.6c0.6,0.6,1.5,0.9,2.6,0.9c1.1,0,2-0.3,2.6-0.9c0.6-0.6,0.9-1.5,0.9-2.6v-7.6H979.3z"/>
	<path d="M982.5,155.4v-11.6h0.8v10.9h5.5v0.8H982.5z"/>
	<path d="M996.5,151.3h-4.7l-1.6,4.1h-0.9l4.7-11.7h0.5l4.6,11.7h-0.9L996.5,151.3z M992,150.6h4.2l-1.6-4.2
		c-0.1-0.3-0.3-0.8-0.5-1.4c-0.1,0.5-0.3,1-0.5,1.4L992,150.6z"/>
	<path d="M1001.4,150.3v5.1h-0.8v-11.6h2.8c1.4,0,2.5,0.3,3.2,0.8c0.7,0.5,1,1.3,1,2.4c0,0.8-0.2,1.4-0.6,2c-0.4,0.5-1,0.9-1.9,1.2
		l3.2,5.3h-1l-3-5.1H1001.4z M1001.4,149.6h2.2c1,0,1.7-0.2,2.3-0.7s0.8-1.1,0.8-1.9c0-0.9-0.3-1.5-0.8-1.9
		c-0.5-0.4-1.4-0.6-2.6-0.6h-1.9V149.6z"/>
	<path d="M1018.8,155.4h-0.8l-6.9-10.3h-0.1c0.1,1.2,0.1,2.2,0.1,2.8v7.5h-0.8v-11.6h0.8l6.9,10.3h0c0-1-0.1-1.9-0.1-2.7v-7.6h0.8
		V155.4z"/>
	<path d="M1022.1,155.4v-11.6h0.8v11.6H1022.1z"/>
	<path d="M1031.2,150.3v5.1h-0.8v-11.6h2.8c1.4,0,2.5,0.3,3.2,0.8c0.7,0.5,1,1.3,1,2.4c0,0.8-0.2,1.4-0.6,2c-0.4,0.5-1,0.9-1.9,1.2
		l3.2,5.3h-1l-3-5.1H1031.2z M1031.2,149.6h2.2c1,0,1.7-0.2,2.3-0.7s0.8-1.1,0.8-1.9c0-0.9-0.3-1.5-0.8-1.9
		c-0.5-0.4-1.4-0.6-2.6-0.6h-1.9V149.6z"/>
	<path d="M1047.1,147.1c0,1.1-0.4,2-1.1,2.6c-0.8,0.6-1.8,0.9-3.2,0.9h-1.8v4.8h-0.8v-11.6h2.8
		C1045.7,143.8,1047.1,144.9,1047.1,147.1z M1040.9,149.9h1.6c1.3,0,2.3-0.2,2.8-0.6s0.9-1.1,0.9-2.1c0-0.9-0.3-1.6-0.8-2
		s-1.4-0.6-2.6-0.6h-1.9V149.9z"/>
	<path d="M1054.2,149.5h4.3v5.3c-1.1,0.5-2.4,0.7-3.8,0.7c-1.8,0-3.2-0.5-4.2-1.6s-1.5-2.5-1.5-4.4c0-1.2,0.2-2.2,0.7-3.1
		c0.5-0.9,1.2-1.6,2.1-2.1c0.9-0.5,1.9-0.7,3.1-0.7c1.3,0,2.4,0.2,3.4,0.7l-0.3,0.7c-1-0.5-2.1-0.7-3.1-0.7c-1.5,0-2.8,0.5-3.6,1.4
		s-1.3,2.2-1.3,3.8c0,1.8,0.4,3.1,1.3,4c0.9,0.9,2.1,1.3,3.8,1.3c1.1,0,2-0.2,2.7-0.5v-4.1h-3.5V149.5z"/>
	<path d="M1074.1,155.4h-0.8v-5.7h-6.8v5.7h-0.8v-11.6h0.8v5.2h6.8v-5.2h0.8V155.4z"/>
	<path d="M1078.2,150.3v5.1h-0.8v-11.6h2.8c1.4,0,2.5,0.3,3.2,0.8c0.7,0.5,1,1.3,1,2.4c0,0.8-0.2,1.4-0.6,2c-0.4,0.5-1,0.9-1.9,1.2
		l3.2,5.3h-1l-3-5.1H1078.2z M1078.2,149.6h2.2c1,0,1.7-0.2,2.3-0.7s0.8-1.1,0.8-1.9c0-0.9-0.3-1.5-0.8-1.9
		c-0.5-0.4-1.4-0.6-2.6-0.6h-1.9V149.6z"/>
	<path d="M1089.7,150.1l3.4-6.4h0.9l-3.9,7.1v4.5h-0.8V151l-3.9-7.2h0.9L1089.7,150.1z"/>
</g>
</svg>
